<svg width="850" height="143" viewBox="0 0 850 143" fill="none" xmlns="http://www.w3.org/2000/svg">
<g filter="url(#filter0_d_310_1275)">
<mask id="path-1-outside-1_310_1275" maskUnits="userSpaceOnUse" x="20.0326" y="5.5" width="810" height="103" fill="black">
<rect fill="white" x="20.0326" y="5.5" width="810" height="103"/>
<path d="M24.0326 104V9.5H90.7226L90.5876 27.32H40.6376L45.6326 22.325L45.7676 104H24.0326Z"/>
<path d="M124.172 47.57H169.667V64.58H124.172V47.57ZM125.792 86.45H177.227V104H104.057V9.5H175.472V27.05H125.792V86.45Z"/>
<path d="M194.892 104V9.5H235.797C244.257 9.5 251.547 10.895 257.667 13.685C263.787 16.385 268.512 20.3 271.842 25.43C275.172 30.56 276.837 36.68 276.837 43.79C276.837 50.81 275.172 56.885 271.842 62.015C268.512 67.145 263.787 71.105 257.667 73.895C251.547 76.595 244.257 77.945 235.797 77.945H207.042L216.762 68.09V104H194.892ZM216.762 70.52L207.042 60.125H234.582C241.332 60.125 246.372 58.685 249.702 55.805C253.032 52.925 254.697 48.92 254.697 43.79C254.697 38.57 253.032 34.52 249.702 31.64C246.372 28.76 241.332 27.32 234.582 27.32H207.042L216.762 16.925V70.52Z"/>
<path d="M291.264 104V9.5H309.354L349.584 76.19H339.999L379.554 9.5H397.644L397.779 104H377.259L377.124 40.955H381.039L349.314 94.01H339.594L307.194 40.955H311.784V104H291.264Z"/>
<path d="M410.589 104L452.709 9.5H474.309L516.564 104H493.614L459.054 20.57H467.694L432.999 104H410.589ZM431.649 83.75L437.454 67.145H486.054L491.994 83.75H431.649Z"/>
<path d="M593.896 9.5H615.766V104H593.896V9.5ZM550.966 104H529.096V9.5H550.966V104ZM595.516 65.255H549.346V46.76H595.516V65.255Z"/>
<path d="M639.443 104V9.5H661.178V71.06L706.268 9.5H726.788V104H705.188V42.575L660.098 104H639.443Z"/>
<path d="M804.182 104V74.165L809.582 78.89H783.662C775.472 78.89 768.407 77.54 762.467 74.84C756.527 72.14 751.982 68.225 748.832 63.095C745.682 57.965 744.107 51.845 744.107 44.735C744.107 37.355 745.772 31.055 749.102 25.835C752.522 20.525 757.292 16.475 763.412 13.685C769.532 10.895 776.732 9.5 785.012 9.5H825.782V104H804.182ZM744.377 104L767.867 70.115H790.007L767.462 104H744.377ZM804.182 67.145V21.65L809.582 27.32H785.552C779.342 27.32 774.572 28.76 771.242 31.64C768.002 34.52 766.382 38.795 766.382 44.465C766.382 49.955 767.957 54.185 771.107 57.155C774.257 60.125 778.892 61.61 785.012 61.61H809.582L804.182 67.145Z"/>
</mask>
<path d="M24.0326 104V9.5H90.7226L90.5876 27.32H40.6376L45.6326 22.325L45.7676 104H24.0326Z" fill="white"/>
<path d="M124.172 47.57H169.667V64.58H124.172V47.57ZM125.792 86.45H177.227V104H104.057V9.5H175.472V27.05H125.792V86.45Z" fill="white"/>
<path d="M194.892 104V9.5H235.797C244.257 9.5 251.547 10.895 257.667 13.685C263.787 16.385 268.512 20.3 271.842 25.43C275.172 30.56 276.837 36.68 276.837 43.79C276.837 50.81 275.172 56.885 271.842 62.015C268.512 67.145 263.787 71.105 257.667 73.895C251.547 76.595 244.257 77.945 235.797 77.945H207.042L216.762 68.09V104H194.892ZM216.762 70.52L207.042 60.125H234.582C241.332 60.125 246.372 58.685 249.702 55.805C253.032 52.925 254.697 48.92 254.697 43.79C254.697 38.57 253.032 34.52 249.702 31.64C246.372 28.76 241.332 27.32 234.582 27.32H207.042L216.762 16.925V70.52Z" fill="white"/>
<path d="M291.264 104V9.5H309.354L349.584 76.19H339.999L379.554 9.5H397.644L397.779 104H377.259L377.124 40.955H381.039L349.314 94.01H339.594L307.194 40.955H311.784V104H291.264Z" fill="white"/>
<path d="M410.589 104L452.709 9.5H474.309L516.564 104H493.614L459.054 20.57H467.694L432.999 104H410.589ZM431.649 83.75L437.454 67.145H486.054L491.994 83.75H431.649Z" fill="white"/>
<path d="M593.896 9.5H615.766V104H593.896V9.5ZM550.966 104H529.096V9.5H550.966V104ZM595.516 65.255H549.346V46.76H595.516V65.255Z" fill="white"/>
<path d="M639.443 104V9.5H661.178V71.06L706.268 9.5H726.788V104H705.188V42.575L660.098 104H639.443Z" fill="white"/>
<path d="M804.182 104V74.165L809.582 78.89H783.662C775.472 78.89 768.407 77.54 762.467 74.84C756.527 72.14 751.982 68.225 748.832 63.095C745.682 57.965 744.107 51.845 744.107 44.735C744.107 37.355 745.772 31.055 749.102 25.835C752.522 20.525 757.292 16.475 763.412 13.685C769.532 10.895 776.732 9.5 785.012 9.5H825.782V104H804.182ZM744.377 104L767.867 70.115H790.007L767.462 104H744.377ZM804.182 67.145V21.65L809.582 27.32H785.552C779.342 27.32 774.572 28.76 771.242 31.64C768.002 34.52 766.382 38.795 766.382 44.465C766.382 49.955 767.957 54.185 771.107 57.155C774.257 60.125 778.892 61.61 785.012 61.61H809.582L804.182 67.145Z" fill="white"/>
<path d="M24.0326 104V9.5H90.7226L90.5876 27.32H40.6376L45.6326 22.325L45.7676 104H24.0326Z" stroke="#2A335C" stroke-width="8" mask="url(#path-1-outside-1_310_1275)"/>
<path d="M124.172 47.57H169.667V64.58H124.172V47.57ZM125.792 86.45H177.227V104H104.057V9.5H175.472V27.05H125.792V86.45Z" stroke="#2A335C" stroke-width="8" mask="url(#path-1-outside-1_310_1275)"/>
<path d="M194.892 104V9.5H235.797C244.257 9.5 251.547 10.895 257.667 13.685C263.787 16.385 268.512 20.3 271.842 25.43C275.172 30.56 276.837 36.68 276.837 43.79C276.837 50.81 275.172 56.885 271.842 62.015C268.512 67.145 263.787 71.105 257.667 73.895C251.547 76.595 244.257 77.945 235.797 77.945H207.042L216.762 68.09V104H194.892ZM216.762 70.52L207.042 60.125H234.582C241.332 60.125 246.372 58.685 249.702 55.805C253.032 52.925 254.697 48.92 254.697 43.79C254.697 38.57 253.032 34.52 249.702 31.64C246.372 28.76 241.332 27.32 234.582 27.32H207.042L216.762 16.925V70.52Z" stroke="#2A335C" stroke-width="8" mask="url(#path-1-outside-1_310_1275)"/>
<path d="M291.264 104V9.5H309.354L349.584 76.19H339.999L379.554 9.5H397.644L397.779 104H377.259L377.124 40.955H381.039L349.314 94.01H339.594L307.194 40.955H311.784V104H291.264Z" stroke="#2A335C" stroke-width="8" mask="url(#path-1-outside-1_310_1275)"/>
<path d="M410.589 104L452.709 9.5H474.309L516.564 104H493.614L459.054 20.57H467.694L432.999 104H410.589ZM431.649 83.75L437.454 67.145H486.054L491.994 83.75H431.649Z" stroke="#2A335C" stroke-width="8" mask="url(#path-1-outside-1_310_1275)"/>
<path d="M593.896 9.5H615.766V104H593.896V9.5ZM550.966 104H529.096V9.5H550.966V104ZM595.516 65.255H549.346V46.76H595.516V65.255Z" stroke="#2A335C" stroke-width="8" mask="url(#path-1-outside-1_310_1275)"/>
<path d="M639.443 104V9.5H661.178V71.06L706.268 9.5H726.788V104H705.188V42.575L660.098 104H639.443Z" stroke="#2A335C" stroke-width="8" mask="url(#path-1-outside-1_310_1275)"/>
<path d="M804.182 104V74.165L809.582 78.89H783.662C775.472 78.89 768.407 77.54 762.467 74.84C756.527 72.14 751.982 68.225 748.832 63.095C745.682 57.965 744.107 51.845 744.107 44.735C744.107 37.355 745.772 31.055 749.102 25.835C752.522 20.525 757.292 16.475 763.412 13.685C769.532 10.895 776.732 9.5 785.012 9.5H825.782V104H804.182ZM744.377 104L767.867 70.115H790.007L767.462 104H744.377ZM804.182 67.145V21.65L809.582 27.32H785.552C779.342 27.32 774.572 28.76 771.242 31.64C768.002 34.52 766.382 38.795 766.382 44.465C766.382 49.955 767.957 54.185 771.107 57.155C774.257 60.125 778.892 61.61 785.012 61.61H809.582L804.182 67.145Z" stroke="#2A335C" stroke-width="8" mask="url(#path-1-outside-1_310_1275)"/>
</g>
<defs>
<filter id="filter0_d_310_1275" x="0.0325928" y="0.5" width="849.749" height="142.5" filterUnits="userSpaceOnUse" color-interpolation-filters="sRGB">
<feFlood flood-opacity="0" result="BackgroundImageFix"/>
<feColorMatrix in="SourceAlpha" type="matrix" values="0 0 0 0 0 0 0 0 0 0 0 0 0 0 0 0 0 0 127 0" result="hardAlpha"/>
<feOffset dy="15"/>
<feGaussianBlur stdDeviation="10"/>
<feColorMatrix type="matrix" values="0 0 0 0 0 0 0 0 0 0 0 0 0 0 0 0 0 0 0.05 0"/>
<feBlend mode="normal" in2="BackgroundImageFix" result="effect1_dropShadow_310_1275"/>
<feBlend mode="normal" in="SourceGraphic" in2="effect1_dropShadow_310_1275" result="shape"/>
</filter>
</defs>
</svg>
